<svg width="20" height="26" viewBox="0 0 20 26" fill="none" xmlns="http://www.w3.org/2000/svg">
<path d="M5.33268 1.3335L4.97913 0.979943L5.33268 0.626389L5.68624 0.979942L5.33268 1.3335ZM5.83268 18.8335C5.83268 19.1096 5.60883 19.3335 5.33268 19.3335C5.05654 19.3335 4.83268 19.1096 4.83268 18.8335L5.83268 18.8335ZM0.666016 6.00016L0.312462 5.64661L4.97913 0.979943L5.33268 1.3335L5.68624 1.68705L1.01957 6.35372L0.666016 6.00016ZM5.33268 1.3335L5.68624 0.979942L10.3529 5.64661L9.99935 6.00016L9.6458 6.35372L4.97913 1.68705L5.33268 1.3335ZM5.33268 1.3335L5.83268 1.3335L5.83268 18.8335L5.33268 18.8335L4.83268 18.8335L4.83268 1.3335L5.33268 1.3335Z" fill="#222222"/>
<path d="M14.6667 24.6665L14.3131 25.0201L14.6667 25.3736L15.0202 25.0201L14.6667 24.6665ZM15.1667 7.1665C15.1667 6.89036 14.9428 6.6665 14.6667 6.6665C14.3905 6.6665 14.1667 6.89036 14.1667 7.1665L15.1667 7.1665ZM10 19.9998L9.64645 20.3534L14.3131 25.0201L14.6667 24.6665L15.0202 24.313L10.3536 19.6463L10 19.9998ZM14.6667 24.6665L15.0202 25.0201L19.6869 20.3534L19.3333 19.9998L18.9798 19.6463L14.3131 24.313L14.6667 24.6665ZM14.6667 24.6665L15.1667 24.6665L15.1667 7.1665L14.6667 7.1665L14.1667 7.1665L14.1667 24.6665L14.6667 24.6665Z" fill="#222222"/>
</svg>
