<svg width="32" height="32" viewBox="0 0 37 37" fill="none" xmlns="http://www.w3.org/2000/svg">
<path d="M18.501 1.1665C23.0112 1.16668 26.667 4.82328 26.667 9.3335C26.6668 13.8436 23.011 17.4993 18.501 17.4995C13.9908 17.4995 10.3342 13.8437 10.334 9.3335C10.334 4.82317 13.9907 1.1665 18.501 1.1665Z" stroke="#222222" stroke-width="2" stroke-linecap="round"/>
<path d="M3.89322 25.2106C4.98489 23.0393 7.31056 21.9375 9.74083 21.9375H27.2592C29.6894 21.9375 32.0151 23.0393 33.1068 25.2106C34.2445 27.4735 35.4788 30.7754 35.6638 34.6863C35.6899 35.238 35.2398 35.6875 34.6875 35.6875H2.3125C1.76021 35.6875 1.31013 35.238 1.33621 34.6863C1.52116 30.7754 2.75548 27.4735 3.89322 25.2106Z" stroke="#222222" stroke-width="2" stroke-linecap="round"/>
</svg>
